<?xml version="1.0" encoding="UTF-8" standalone="no"?>
<!-- Created with Inkscape (http://www.inkscape.org/) -->

<svg
   width="1920"
   height="1080"
   viewBox="0 0 1920 1080"
   version="1.1"
   id="svg1"
   inkscapeversion="1.3.2 (091e20e, 2023-11-25, custom)"
   sodipodidocname="logo Prechy.svg"
   xmlnsinkscape="http://www.inkscape.org/namespaces/inkscape"
   xmlnssodipodi="http://sodipodi.sourceforge.net/DTD/sodipodi-0.dtd"
   xmlns="http://www.w3.org/2000/svg"
   xmlnssvg="http://www.w3.org/2000/svg">
    <path
       style="font-size:96px;font-family:'Scream Again';-inkscape-font-specification:'Scream Again';fill:#ffffff;stroke-width:1.82978;image-rendering:auto"
       d="m 86.335604,446.24931 c 27.747946,-5.69434 58.945186,39.67589 48.653916,90.81167 -3.17229,89.48973 -82.997241,43.56792 -81.089876,120.40455 1.775103,15.63424 -17.05375,94.49785 -10.364193,37.35113 5.766987,-46.22403 -3.855173,-20.95208 -3.574143,-9.6784 -2.729313,22.96536 -9.715566,63.19749 -7.490239,22.25111 -1.357373,5.84625 -10.289066,54.30512 -7.034305,23.38063 6.727013,-59.71817 -7.633491,28.18418 -5.06079,-15.04621 6.360079,-59.37116 10.1429,-120.90245 13.332619,-181.93833 -39.5406496,36.9178 4.093956,-3.64825 -10.746856,-5.30866 -45.944688,29.43753 44.36788,-47.02932 38.884068,-39.1936 -17.710325,5.70786 -35.536861,21.66144 -53.8645349,33.88497 31.6212359,-30.55435 48.9562379,-38.25161 4.6244069,-10.05256 -28.579579,26.62508 24.299881,-29.61807 3.061225,-10.61728 -38.61541,30.85541 20.068318,-26.58393 -1.563182,-13.77987 20.657175,-27.64819 47.219359,-38.07492 72.231884,-42.46915 z m -63.373867,51.50513 c 9.281083,-3.36038 12.866762,-10.94309 0,0 z m 59.400775,11.18205 c -23.809361,-12.49356 -24.605785,95.7848 1.660888,37.21697 16.04061,-15.76815 17.13555,-41.48432 -1.660888,-37.21697 z M 229.43154,442.52197 c 60.44555,-17.14179 71.7611,110.10506 19.27921,144.80172 -51.399,11.72031 81.27997,168.73696 20.97264,109.78726 14.84197,29.55689 -33.0061,-57.91589 5.53627,15.92591 -13.71958,-17.16948 -18.14704,-36.44041 -29.96091,-50.48858 13.77119,30.9544 25.11498,47.96701 0.91185,8.01944 7.77348,16.67221 37.46752,67.70983 7.62048,19.08853 28.98218,59.8351 -38.55425,-73.5754 10.74686,28.1245 -14.73151,-24.71629 -38.54571,-73.1636 -12.28198,-13.96834 -27.15867,-56.86063 24.17226,56.25182 -14.35719,-16.30221 11.5831,26.48267 31.05727,65.40505 0.15061,4.91331 -22.36689,-42.99305 33.31369,63.9154 16.65356,41.73498 29.64616,60.09558 -50.306,-67.59922 -50.79167,-103.46175 -6.35471,54.5919 -15.34345,112.90276 -18.50924,92.9574 -8.67577,53.43787 9.34491,-77.37754 0,-23.8324 -3.68117,9.02187 -7.48722,22.2992 -7.62049,17.95901 -3.99247,21.69724 7.38618,-92.29414 -3.06123,-6.32518 -5.88372,18.60314 2.33851,-14.90362 -5.53625,6.88994 -3.90866,35.1855 0.9614,-50.05136 -0.5862,-28.57632 -1.60593,21.45042 -24.14038,88.63796 -12.04542,19.6109 9.04417,-65.25946 28.09414,-197.50217 2.56866,-175.4817 18.90516,-27.76596 -15.62174,9.51854 -4.9175,-9.14893 54.0359,-58.32147 -17.36397,14.69659 4.29874,-15.92596 2.4781,0.22075 6.97728,-7.0285 11.33304,-10.61727 50.2372,-47.65587 -70.288448,62.05986 -5.05998,-1.27775 34.87621,-34.44389 8.54996,-10.72279 -6.92439,-5.61218 21.71613,-28.11451 46.23018,-41.2747 71.58053,-48.79433 z m -56.27442,44.61517 c 0.76413,12.25802 -23.92836,10.34052 0,0 z m 38.55841,56.70083 c -3.95548,47.64963 49.47601,-50.73727 14.39427,-39.19359 -14.72273,-6.1003 -13.75171,19.33438 -14.39427,39.19359 z m 204.45072,-59.63754 c -22.93821,25.97167 -49.16607,33.13516 -7.94616,16.49071 -9.92546,8.8228 -1.26055,4.58214 -13.15674,14.79644 -12.36054,14.59314 -2.03991,7.33182 16.1954,1.05645 28.25501,-3.53621 -49.17922,34.50622 -39.18717,29.77884 -8.14106,5.66082 85.74301,-37.09244 19.71886,2.48489 -31.69309,-7.98765 -75.23015,72.08766 -16.52736,37.49936 50.29277,-23.68091 -47.74219,27.67987 11.59357,4.7439 -57.03981,21.37594 6.84925,1.91416 -9.18368,14.34465 -36.72685,16.4802 14.10242,0.1192 1.56318,9.03598 -9.30988,9.82426 -7.6643,3.93802 -14.98045,12.76331 33.70388,-15.47921 -13.3981,11.05664 19.86539,0 -29.76224,12.35731 22.85986,-1.4525 -23.25229,18.5238 -31.01889,1.37668 -25.34555,84.51645 13.05906,33.88495 48.42367,-21.79088 50.52882,-21.1253 36.0508,-6.09929 5.1214,-2.43434 -18.40964,13.85178 4.62441,8.47125 24.03258,-0.85652 -20.26425,21.13757 -14.71993,17.0554 24.95366,-1.58051 22.32723,-3.20527 13.12238,6.36833 -56.26331,25.63419 49.81539,-19.42845 -10.97302,16.44756 -34.00043,12.33231 -67.64524,41.26815 -101.6066,29.93172 2.50635,-60.54536 9.36805,-130.09768 11.33305,-188.51333 -7.90206,-66.31022 34.30865,-38.5143 56.33956,-57.83032 16.00998,-4.06449 31.8828,-15.59619 48.06774,-21.2346 z M 367.9031,615.44818 c -23.57726,10.87864 14.57832,-0.67553 0,0 z m 8.85802,10.05256 c 2.16669,1.91056 -1.89938,1.81686 -3.06122,1.69422 z M 532.94869,467.25798 c -14.12232,22.31444 -41.87978,52.86673 1.88887,12.53751 -31.29153,41.91426 -10.69559,28.23089 -2.01914,16.15187 -19.58108,25.56117 26.72276,-7.39507 -17.52074,33.54604 -38.32483,55.09558 8.70335,-16.49526 18.88832,-9.71369 -29.34708,28.53685 -99.30768,207.38201 -20.45154,143.22043 14.40636,-2.52379 -23.06326,57.47017 3.97296,23.04189 -26.03547,42.76228 -20.78209,26.39672 1.49801,10.39137 -27.25178,32.63155 18.81489,5.13035 -25.79244,47.32588 -37.89838,40.14413 -67.1221,-46.38367 -50.47765,-103.23626 13.85154,-72.17449 45.02848,-154.44573 90.01335,-173.26504 z m 102.12767,322.58479 c -5.18011,-30.12086 -3.16988,-59.5162 -7.0343,-11.18203 1.33897,-25.10641 -0.57296,-64.63192 -3.06122,-10.61729 -2.78951,5.06298 -2.95422,-13.4192 -6.12246,15.36118 -4.11233,-0.63189 -4.88371,-38.44231 -3.6474,-28.12453 -0.64908,10.66737 -4.26991,27.71391 -5.2106,4.29209 -0.52853,-45.0928 -12.74882,49.40374 -9.18369,-16.49067 1.81756,-37.31225 4.13377,-76.48893 6.70865,-113.62756 -35.17227,-1.12366 -21.56256,69.02283 -31.78462,107.30238 -4.97344,-10.66552 1.44007,-41.91249 -4.03821,-11.18204 -4.4785,-4.55871 -1.0855,-17.19689 -1.17239,-31.28711 -9.27978,77.89315 -2.07934,-40.09828 -7.0343,19.65327 -3.29446,72.10198 -0.55664,-35.39852 -6.44812,41.90441 -0.23707,-51.96775 -8.74157,-25.23761 -5.21059,-23.94537 2.5203,-61.78726 2.12005,-48.26564 -2.73556,2.14604 -3.52384,-3.98321 -5.70743,-24.8851 -0.1302,-73.75626 3.3197,-72.61299 8.18261,-154.86478 19.08381,-225.33495 0.7006,17.44862 -6.09932,112.32105 0.32566,59.52458 8.27188,-85.15366 -1.64238,40.15736 7.29483,-12.76337 3.61377,-5.67024 2.50508,-3.96466 8.27183,-32.86839 -0.52398,43.89098 11.22967,14.53594 6.4481,12.65038 7.4511,31.45297 -5.10965,81.7723 -0.32565,112.83691 36.85959,5.92783 15.38264,-65.24571 30.35171,-94.53901 -7.77442,82.03219 9.20638,-39.59202 2.28693,25.57632 -5.54587,85.26392 1.7782,-11.33737 7.48293,-35.06413 -4.81164,66.47872 -1.89456,65.90503 7.03431,4.74392 -0.81421,17.41654 0.35473,33.35932 1.56318,49.92382 7.62029,-69.24308 3.88438,-30.01893 4.55926,0 4.17042,-44.58646 7.17314,-41.19027 5.21061,-20.78279 8.23486,-71.67678 -6.71356,105.0525 -1.62049,53.44607 -3.56017,77.61765 -8.41858,155.71552 -11.86194,232.20413 z M 587.3343,495.49542 c 2.67445,-29.74608 0.21531,-18.68688 -0.91186,4.2921 z m 166.73903,-46.42236 c -6.16057,30.53543 -28.92295,79.249 -34.25966,113.9664 6.84631,-23.55909 20.17945,-67.11676 29.63525,-82.67931 -24.76904,78.02104 26.83654,-74.86625 -3.32176,23.83242 18.12752,-51.62268 -20.00327,82.78427 3.64743,7.45472 24.03818,-68.58864 -10.42521,39.36388 8.27181,-11.63385 11.75343,-38.25112 -16.76052,60.89505 5.47113,-9.03601 6.64056,0.48814 -32.75863,120.79631 -42.13119,159.55362 -5.49324,39.59519 -36.68766,110.7683 -13.49191,32.91294 25.63522,-96.62484 -40.70482,122.51706 -7.37625,7.20058 7.8879,-33.98057 -14.96508,32.66215 -12.84738,17.28132 -16.18075,47.98773 1.04418,-15.72398 -13.12418,24.87719 -13.46683,22.90822 10.48656,-52.41772 -0.91186,-31.28709 -8.90476,10.81276 -7.27429,-18.06047 9.9327,-72.45734 8.23981,-63.41132 -37.64694,-167.01788 -6.28528,-103.63149 25.53207,65.17468 -2.67291,-7.25038 -3.06121,-33.99791 4.86883,17.94652 -2.56484,-29.25725 9.76986,12.76332 -19.75047,-75.26821 14.66797,44.43218 0.91185,-17.95903 7.45906,15.54856 13.54016,44.38281 7.03431,5.19571 19.30428,65.08498 16.37555,50.67532 4.15218,-0.87537 -10.33067,-79.47164 24.28118,128.79411 31.13331,-5.61924 11.22775,-29.44094 -5.30642,39.30272 -10.20951,58.5645 8.16142,-26.73583 31.80483,-81.51359 11.00738,-19.65327 11.03854,-34.36423 19.80565,-51.96313 26.05298,-74.77281 z m -14.71993,37.6123 c 0.68981,4.6126 -5.17599,8.58276 0,0 z m 149.15327,-57.37854 c -1.22642,49.56614 11.71229,-23.2746 7.94616,19.08855 -4.1441,34.67195 10.00106,-30.95655 3.97307,-3.72736 4.05477,14.8867 11.77103,87.32229 15.89231,128.42399 1.4998,45.06043 17.15848,-156.38895 19.60488,-100.29949 -0.57465,19.93017 10.39265,-7.14817 5.21059,-9.03598 -4.26042,24.43853 -9.81061,111.73634 -1.82371,28.68928 4.95496,-1.40831 3.0276,-43.77967 6.12245,-12.1986 -0.17609,14.3017 3.70501,-29.15774 3.97308,-13.97211 4.03765,-42.721 -1.08219,33.38848 3.32176,-4.09986 0.25485,26.6526 3.1336,35.87855 2.14938,30.83529 4.44772,-24.89916 2.95533,-41.74883 6.77375,-55.23245 0.94068,13.68113 4.96697,20.64225 2.40991,20.10508 3.58632,0.0617 5.31903,82.93334 6.68015,23.00645 5.16941,-77.9788 5.54836,-12.36523 4.93582,16.02418 0.9489,64.5967 10.88648,136.78137 9.22644,198.277 -8.1417,-41.49895 -3.34258,5.84159 -1.56324,30.27056 1.83206,21.6908 -1.68159,-0.14018 0.91186,31.85185 -5.63254,-22.68148 -7.63108,-77.64616 -9.76982,-40.88785 2.3733,11.39353 6.3471,79.81988 0.58618,47.21304 -3.19116,-25.1001 -6.6141,-43.66149 -5.74802,-15.07978 -0.85211,7.64767 -3.81661,-8.18066 -3.11006,11.91719 4.09748,27.00011 4.52498,84.49901 -6.38295,0.96715 -10.6821,-51.38729 -8.21458,-212.14885 -28.52798,-82.74285 5.63346,-29.56411 -8.26734,-12.17607 -9.05341,5.61929 1.81206,42.84236 -1.52046,26.40572 -2.2145,30.52467 -2.16987,2.22249 -11.09835,-0.82372 -6.12245,3.72736 -6.85616,-33.50592 -5.13077,-30.68526 -3.71256,8.47121 -11.20763,-13.95117 -16.72162,-135.57043 -25.98783,-42.46913 -4.25412,40.92817 -26.72537,138.27259 -12.86367,41.19847 2.11305,-43.66718 5.23031,-19.47399 -7.97871,18.21315 0.48469,-13.69777 -1.44031,-11.33399 1.23751,-29.14106 -4.72514,7.72883 -1.1947,16.07351 -4.55927,19.65328 4.79638,-20.77466 -5.3607,-13.09016 -4.0382,-9.03599 -1.07901,-6.48207 -10.29468,8.35967 -6.70865,12.19858 0.49244,-23.64093 -4.67126,17.64748 -3.97307,-5.87339 -14.25885,58.28511 9.97584,-77.39925 -11.00738,26.54323 -6.90403,1.38818 14.83916,-111.11573 16.56315,-148.29412 10.28944,-51.96231 11.53313,-139.67479 22.58143,-160.62375 -0.32921,22.61367 8.74654,-20.07818 8.27184,-12.76333 4.57289,4.55395 -1.81632,14.73042 6.77376,-7.34175 z m 53.2132,42.92093 c -0.90522,38.13375 -2.7975,3.08651 0,0 z m -3.06121,11.18206 c 2.32222,-0.23975 -1.75786,7.26477 0,0 z m -37.90709,5.30865 c -3.35509,21.29121 8.81598,133.58614 1.26456,57.91691 -5.71502,-77.81063 9.96875,75.12382 0.81968,-22.33772 5.3322,50.2891 10.06656,91.5284 3.62754,18.35846 -4.82945,-51.37376 -1.07533,-9.71769 -5.71178,-53.93765 z m 44.02954,11.63383 c -1.64684,15.48449 -1.84184,30.19744 0,0 z m -42.20583,12.76332 c 3.9726,30.57223 2.35767,33.30941 0,0 z m -4.88494,20.66985 c 4.39936,47.40696 7.08678,60.81507 0,0 z m 7.29483,4.29209 c 2.03765,7.74225 -0.41831,6.05523 0,0 z m -45.26703,198.00109 c 1.48034,2.69851 -1.61803,7.13518 0,0 z m 124.85888,14.34463 c 1.56667,1.10863 -0.64443,6.94549 0,0 z m 78.61478,-282.37465 c -15.8301,20.47979 22.8111,4.5169 -7.1645,42.5821 14.2329,-8.82692 -60.18784,108.15567 -13.6778,138.13769 28.6401,-2.43185 42.0222,-73.93707 31.9149,-114.05128 -3.3611,-15.20836 -7.3289,-34.55713 2.6704,-20.24626 9.2714,14.73194 -4.1319,4.95365 -1.8238,-23.15471 23.3085,60.73649 -4.4393,-54.81894 23.3825,27.10797 12.7896,80.29685 -11.5572,197.77056 -64.8067,210.99044 -42.71315,-2.62358 -39.19108,-104.87799 -29.3746,-154.62828 9.6511,-45.54989 30.09,-95.62594 58.8796,-106.73767 z m -24.62,42.3562 c 21.5373,-20.18464 19.3243,-28.41627 -0.065,-1.46833 z m 232.8483,-38.17707 c -20.2344,12.6711 -19.2945,16.81182 -29.6351,22.36408 13.0823,-5.24181 39.0707,-11.63412 20.4517,-0.56473 27.5449,-11.9987 -15.4981,13.7955 8.0111,4.74389 20.6805,-2.96283 -65.3924,25.40994 -44.3552,21.79932 1.7709,1.04386 28.8526,-7.84783 3.0613,3.72734 27.4208,-8.68929 11.5938,-3.28247 -3.7126,7.9065 1.8974,-2.7187 13.2147,-4.14383 19.8654,-4.17915 10.6191,-5.45925 2.8284,5.98441 -11.5936,14.79644 69.7046,-28.86689 -0.953,6.69864 -25.4017,22.81588 -6.4348,73.30778 -17.4109,148.43399 -30.8727,216.97666 -1.3854,-13.97198 8.4337,-101.06621 2.1719,-59.22379 -4.2219,24.22838 2.4716,-35.32921 -3.4095,8.84816 -9.6396,66.48591 3.4679,-40.99278 3.6475,-55.79725 -1.0252,-7.64521 -10.843,62.53683 -7.6205,53.08645 1.7457,-2.53586 -6.3292,49.24745 -4.9492,32.10551 4.1878,-65.91681 1.0964,9.79834 -4.2344,21.43272 1.1108,-37.70509 0.7986,-32.64371 -3.3219,8.58418 -0.8251,-11.01639 6.7164,-87.349 0,-38.7418 -2.8924,35.94672 3.6852,-83.85073 -2.247,10.05254 -6.795,59.35718 5.3776,-75.59658 -1.4655,-34.44969 0.3053,17.28232 -9.4247,65.48947 -6.7087,58.28213 -0.9289,-67.48913 8.1685,-138.49557 9.4443,-205.22991 -22.8455,12.86918 -53.7683,21.06234 -25.6623,-2.7108 -57.3895,28.42974 52.8995,-31.25629 -12.831,-1.01654 11.6427,-11.82541 46.7006,-25.94185 12.831,-13.77988 14.1939,-9.92308 38.0237,-16.57527 25.0761,-18.07199 -14.8193,1.90047 -32.5114,16.28835 -30.4006,7.31354 -25.7819,8.1865 10.4971,-3.49521 9.2976,-10.47612 -28.5687,5.93397 -9.1552,-5.73284 -13.1567,-1.01656 1.7973,-0.89449 32.433,-16.27422 -5.7968,-5.87338 30.45,-23.5103 84.4012,-47.26676 124.5333,-55.93842 9.7071,-2.07358 19.3129,-5.27929 28.9838,-7.76533 z m -130.2647,79.62967 c 3.9982,0.98462 -12.6903,4.03625 0,0 z m 46.5045,114.07937 c -8.6337,52.29916 -2.2757,31.58255 0.2605,0 z m 147.069,-197.88817 c -15.8292,20.47973 22.8112,4.51697 -7.1642,42.5821 14.2328,-8.82694 -60.1878,108.15552 -13.6779,138.13769 28.6403,-2.43164 42.0224,-73.93733 31.9143,-114.05128 -3.361,-15.2082 -7.3286,-34.55724 2.6706,-20.24626 9.2713,14.73089 -4.1324,4.95773 -1.8239,-23.15471 23.3085,60.73634 -4.4392,-54.81886 23.3825,27.10797 12.7894,80.29692 -11.5573,197.77058 -64.8067,210.99044 -42.7135,-2.62356 -39.1912,-104.87774 -29.3749,-154.62828 9.6513,-45.54986 30.0903,-95.62657 58.8802,-106.73767 z m -24.62,42.3562 c 21.5374,-20.18459 19.3243,-28.41634 -0.065,-1.46833 z m 93.3998,-53.53823 c 11.2256,36.64156 20.6078,123.37121 11.9194,30.27055 17.8371,44.833 25.0683,264.98555 42.8571,106.05993 5.8007,-34.66012 28.6244,-152.08842 14.6548,-55.11952 -7.7735,51.39138 13.9248,-60.13236 4.2986,-0.56477 -0.1422,10.68351 8.7259,-42.22647 4.25,0.16184 -5.3402,31.31475 -0.035,15.49616 -0.9281,19.94309 10.1647,-44.47721 -5.1932,43.50135 8.5975,-31.2871 -6.9858,49.60769 4.4433,5.32582 -9.1837,70.02893 15.3224,-68.38276 17.5123,-70.76606 14.3943,-60.99294 9.0423,-45.51567 -1.3993,24.18972 8.8579,-32.30365 -10.1155,62.0279 -0.5616,20.72684 -10.6817,80.08144 5.6734,-38.26808 31.8564,-130.76079 11.5936,-35.57919 -16.5683,75.40045 -31.7908,162.25556 -53.2133,229.74 12.6306,-61.19963 -0.5231,-8.36609 8.272,-61.55767 -12.2643,43.43115 -19.4596,64.88343 -15.6318,39.75835 -3.1149,9.41312 -6.4294,22.95861 -7.6205,6.88994 -0.7533,-18.1016 -5.1196,21.25755 -5.2106,-13.77987 -1.6848,75.74778 -9.807,12.63959 -15.3061,-34.44974 -8.6307,-49.02736 -34.7064,-184.46673 -27.5511,-192.01475 13.6623,71.08863 2.8524,2.13715 0,-11.63382 -6.8389,-39.1915 26.7728,127.66781 3.7126,7.34174 -23.8963,-132.00046 30.7522,152.01919 8.5322,23.38062 -5.7237,-46.49415 7.3559,17.13217 -2.1491,-33.43316 12.4939,46.41464 19.1016,97.39359 6.7737,14.9094 3.8461,12.63447 -2.3261,-20.8669 3.0611,-6.43816 -13.2919,-64.61568 10.1181,24.35764 -5.5362,-38.74179 -7.9698,-37.74436 13.2621,51.03642 9.3152,24.41803 -2.1777,-15.30097 -6.3641,-29.63954 -8.0778,-45.08788 z m 77.3773,55.23248 c 1.8774,4.55203 -2.6406,8.36924 0,0 z m -84.0858,52.52168 c 2.5681,34.12637 8.3151,32.07989 0,0 z m 5.1453,29.70583 c -0.5049,16.35479 9.2807,31.89766 0,0 z m 3.3869,19.54031 c 1.2289,22.1281 8.558,37.52786 0,0 z m 156.5785,-157.11325 c 2.3901,12.00765 -1.3538,61.91319 0.8472,39.75836 -0.1278,-9.59979 3.8767,-49.81481 4.3639,-26.09148 -3.7669,49.48843 -1.9111,54.69208 3.5172,6.32513 6.5459,6.00008 -7.2854,89.4698 -6.6435,118.93612 -12.9784,73.60783 -8.8538,120.19044 37.3855,69.69025 77.5836,-41.33836 -58.6027,44.7878 4.4292,8.69715 14.5902,-5.53147 -15.0919,15.0249 -1.042,8.35814 -11.8473,11.69164 15.1696,-2.49879 -10.4213,15.24816 3.8403,5.33853 7.2576,-3.69641 27.0951,-9.26202 19.9809,-12.21357 -38.0061,29.50822 0.2607,9.82658 14.5658,-2.64709 -22.5607,16.03588 1.9539,5.53455 25.6714,-5.10409 -14.5561,15.74351 -31.0077,26.38168 -18.0793,-4.65103 -73.5672,69.3832 -74.2792,21.25498 7.6927,-89.19578 8.7763,-184.36725 19.1819,-273.42322 2.7691,16.08435 -0.6342,80.57139 2.9314,35.46627 0.8865,-5.94585 2.9027,-42.2574 6.3832,-27.67277 -0.8276,41.07162 2.3124,-30.97231 2.9957,8.35827 -1.491,33.43415 -0.2375,43.3806 1.8236,-1.12955 9.1504,-82.88373 -0.6068,69.36564 4.1035,6.77698 1.4528,-19.88584 5.779,-56.0822 5.6016,-41.11379 h -0.3255 l 0.8466,-1.92013 z m -9.9653,64.26847 c -2.1984,17.49465 1.808,16.92845 0,0 z m 53.1481,164.34205 c 4.8724,-0.68754 -1.9847,3.67436 0,0 z m -3.1264,9.03598 c 3.4443,-0.81216 -4.5727,5.22148 0,0 z m 107.7291,-226.35152 c -15.8299,20.47983 22.811,4.51695 -7.1645,42.5821 14.233,-8.82699 -60.1878,108.15558 -13.6779,138.13769 28.6403,-2.43178 42.0223,-73.93729 31.9145,-114.05128 -3.361,-15.20836 -7.3289,-34.55707 2.6703,-20.24626 9.2714,14.73209 -4.1322,4.95291 -1.8239,-23.15471 23.3085,60.7364 -4.4392,-54.81889 23.3826,27.10797 12.7893,80.29663 -11.5573,197.77056 -64.8069,210.99044 -42.7131,-2.62351 -39.1911,-104.87827 -29.3746,-154.62828 9.6514,-45.54986 30.0903,-95.62716 58.8804,-106.73767 z m -24.6201,42.3562 c 21.5374,-20.18459 19.3245,-28.41634 -0.065,-1.46833 z m 153.9731,-46.30943 c -9.0997,17.64085 -35.6769,46.59432 0.9118,10.61728 -30.3467,30.45723 -40.4234,52.96552 -11.5935,16.94246 4.1871,1.93654 -30.5678,55.81583 3.0612,6.32521 34.3423,-41.52991 -55.187,81.35589 -27.551,48.34253 15.1835,-27.99366 24.3246,-39.45 42.5314,-54.10298 -17.0521,29.24313 -43.7784,68.06835 -4.8849,14.79643 25.3908,-12.2204 -57.9231,88.75561 -46.8302,142.1246 -12.3644,75.19104 47.2655,20.08084 34.8459,4.93611 -29.5856,6.84543 -14.6563,-0.45775 5.862,-11.63383 -17.4084,2.07967 -33.0931,8.32207 -3.7127,-6.88994 33.7584,-14.96609 -18.6021,1.01203 -14.0686,1.01657 -20.707,6.25287 17.2221,-13.11035 10.0956,-9.03598 4.6701,-2.72516 9.7974,-4.10079 3.0611,-7.4547 -10.803,4.47045 -28.0392,-0.9907 -6.0372,-7.74867 47.7293,-19.05472 -53.8133,15.90926 11.2478,-15.06721 27.6582,-10.93505 91.6913,-41.75607 68.845,-23.83244 44.3129,-18.4814 -34.1556,18.22828 -6.3829,13.77991 -0.2559,8.8576 -10.1984,13.78204 -1.5632,13.77987 -30.1856,15.09965 -0.6319,5.26401 7.6855,5.30865 -24.7468,16.22432 7.8108,7.54619 -34.3246,37.1605 -7.2052,34.61378 -15.2172,114.7275 -22.015,119.95274 -6.8357,12.33303 -1.8128,-29.57826 2.7357,-62.12243 -0.7044,-9.66132 -1.9722,12.9089 -3.6475,17.05544 -3.6494,23.81344 -1.7064,30.96915 -8.2717,57.83034 -3.2053,-16.96981 8.4646,-93.40835 -0.464,-36.03842 -3.5001,26.31852 -14.2394,54.25419 -14.5165,28.58371 14.6772,-54.7219 -59.3991,16.88394 -62.0549,-71.66666 -10.5922,-90.75986 29.0624,-199.12275 77.0354,-232.95909 z m 4.6245,140.05781 c 6.3521,-0.98633 16.1087,-8.63751 0,0 z"
       id="text1"
       aria-label="Prechy Motovlog"
       inkscapelabel="text1">
      <title
         id="title1">text1</title>
    </path>
</svg>
